<?xml version="1.0" encoding="UTF-8"?>
<svg width="43px" height="43px" viewBox="0 0 43 43" version="1.1" xmlns="http://www.w3.org/2000/svg" xmlns:xlink="http://www.w3.org/1999/xlink">
    <title>facebook_icon</title>
    <g id="Desktop" stroke="none" stroke-width="1" fill="none" fill-rule="evenodd">
        <g id="facebook_icon" fill="#000000" fill-rule="nonzero">
            <path d="M43,21.6314412 C43,9.68472408 33.3741216,0 21.5,0 C9.62587838,0 0,9.68472408 0,21.6314412 C0,32.4283188 7.86223926,41.3773187 18.140625,43 L18.140625,27.8842797 L12.6816406,27.8842797 L12.6816406,21.6314412 L18.140625,21.6314412 L18.140625,16.8657643 C18.140625,11.4443768 21.3504465,8.44978172 26.2614614,8.44978172 C28.6137978,8.44978172 31.0742188,8.87227081 31.0742188,8.87227081 L31.0742188,14.1956333 L28.3630826,14.1956333 C25.6922934,14.1956333 24.859375,15.863057 24.859375,17.5737411 L24.859375,21.6314412 L30.8222656,21.6314412 L29.869043,27.8842797 L24.859375,27.8842797 L24.859375,43 C35.1377607,41.3773187 43,32.4283188 43,21.6314412 Z" id="Path"></path>
        </g>
    </g>
</svg>