<?xml version="1.0" encoding="UTF-8"?>
<svg width="43px" height="43px" viewBox="0 0 43 43" version="1.1" xmlns="http://www.w3.org/2000/svg" xmlns:xlink="http://www.w3.org/1999/xlink">
    <title>instagram_icon</title>
    <g id="Desktop" stroke="none" stroke-width="1" fill="none" fill-rule="evenodd">
        <g id="instagram_icon">
            <path d="M37.5,8 C36.120332,8 35,9.12033195 35,10.5 C35,11.879668 36.120332,13 37.5,13 C38.879668,13 40,11.879668 40,10.5 C40,9.12033195 38.879668,8 37.5,8 Z" id="Path"></path>
            <circle id="Oval" cx="21.5" cy="21.5" r="9.5"></circle>
            <path d="M34.3552083,0 L8.64479167,0 C3.87,0 0,3.92727273 0,8.77272727 L0,34.2272727 C0,39.0727273 3.87,43 8.64479167,43 L34.3552083,43 C39.13,43 43,39.0727273 43,34.2272727 L43,8.77272727 C43,3.92727273 39.13,0 34.3552083,0 Z M21.5,31.7727273 C15.91,31.7727273 11.3770833,27.1727273 11.3770833,21.5 C11.3770833,15.8272727 15.91,11.2272727 21.5,11.2272727 C27.09,11.2272727 31.6229167,15.8272727 31.6229167,21.5 C31.6229167,27.1727273 27.09,31.7727273 21.5,31.7727273 Z M34.5522917,10.9636364 C33.3608333,10.9636364 32.3933333,9.98181818 32.3933333,8.77272727 C32.3933333,7.56363636 33.3608333,6.58181818 34.5522917,6.58181818 C35.74375,6.58181818 36.71125,7.56363636 36.71125,8.77272727 C36.71125,9.98181818 35.74375,10.9636364 34.5522917,10.9636364 Z" id="Shape" fill="#020202" fill-rule="nonzero"></path>
        </g>
    </g>
</svg>