<?xml version="1.0" encoding="UTF-8"?>
<svg width="43px" height="43px" viewBox="0 0 43 43" version="1.1" xmlns="http://www.w3.org/2000/svg" xmlns:xlink="http://www.w3.org/1999/xlink">
    <title>linkedin_icon</title>
    <g id="Desktop" stroke="none" stroke-width="1" fill="none" fill-rule="evenodd">
        <g id="linkedin_icon" fill="#000000" fill-rule="nonzero">
            <path d="M39.8204225,0.00028567625 L3.17957746,0.00028567625 C2.34775107,-0.0108963067 1.54541303,0.306581874 0.949109195,0.883163551 C0.352805362,1.45974523 0.011394355,2.24818774 0,3.07500278 L0,39.9249972 C0.011394355,40.7518123 0.352805362,41.5402548 0.949109195,42.1168364 C1.54541303,42.6934181 2.34775107,43.0108963 3.17957746,42.9997143 L39.8204225,42.9997143 C40.6522489,43.0108963 41.454587,42.6934181 42.0508908,42.1168364 C42.6471946,41.5402548 42.9886056,40.7518123 43,39.9249972 L43,3.07500278 C42.9886056,2.24818774 42.6471946,1.45974523 42.0508908,0.883163551 C41.454587,0.306581874 40.6522489,-0.0108963067 39.8204225,0.00028567625 L39.8204225,0.00028567625 Z M13.0427565,35.9906046 L6.55382294,35.9906046 L6.55382294,16.6411326 L13.0427565,16.6411326 L13.0427565,35.9906046 Z M9.79828974,13.9322065 L9.79828974,13.9322065 C7.93474542,13.9322065 6.42404427,12.4306105 6.42404427,10.578298 C6.42404427,8.72598553 7.93474542,7.22438955 9.79828974,7.22438955 C11.0950178,7.07821526 12.3613005,7.68359838 13.0558916,8.78178042 C13.7504826,9.87996246 13.7504826,11.2766336 13.0558916,12.3748156 C12.3613005,13.4729977 11.0950178,14.0783808 9.79828974,13.9322065 L9.79828974,13.9322065 Z M36.4461771,35.9906046 L29.9572435,35.9906046 L29.9572435,25.6063879 C29.9572435,23.0049589 29.027163,21.3065053 26.6695171,21.3065053 C25.1750737,21.31738 23.8457098,22.2526224 23.3385312,23.6499413 C23.1692662,24.1552641 23.0959225,24.687446 23.1222334,25.2193985 L23.1222334,35.9691052 L16.6332998,35.9691052 C16.6332998,35.9691052 16.6332998,18.3825851 16.6332998,16.6196332 L23.1222334,16.6196332 L23.1222334,19.3500587 C24.323553,17.2780897 26.5796245,16.036868 28.9839034,16.1251467 C33.3098592,16.1251467 36.4461771,18.898571 36.4461771,24.8539085 L36.4461771,35.9906046 Z" id="Shape"></path>
        </g>
    </g>
</svg>