<svg id="b9574715-f51d-4cc5-89a8-cfc777c68231" data-name="Layer 1" xmlns="http://www.w3.org/2000/svg" viewBox="0 0 248 45"><defs><style>.fa98ca42-c8fb-4c5a-83d6-9e8d74839fab{fill:#9d9795;}.e0b3e770-917e-4be0-9440-1b1b7110c409{fill:#cfb991;}</style></defs><title>PU-H-Full-RGB</title><path d="M96.65782,3.858,93.8859,3.05088V1.05074h10.82847c7.05206,0,9.65607,2.25347,9.65607,7.57934,0,4.98121-2.84557,7.5646-8.41886,7.5646h-4.3803v7.977l2.80727.80713v1.8617H93.81521v-1.8617l2.84261-.80713Zm4.91346-.08837v9.96242l5.158-.38294c1.28139-.58914,2.604-1.36387,2.604-4.58059,0-2.43022-.11489-5.00773-4.831-5.00773Z"/><path d="M154.60308,15.85887h-3.49362v8.31282l2.80433.80713v1.8617h-10.5663v-1.8617l2.84261-.80713V3.84623l-2.80727-.80713V1.05074H154.6885c6.70151,0,9.13173,2.37719,9.13173,6.946,0,3.53486-1.37859,5.37-4.56,6.63376l4.78092,9.332,3.08416,1.01627v1.8617h-7.17872ZM151.10946,3.78731v9.824l5.21981-.35054c1.65844-.82186,2.45674-2.13565,2.45674-4.84277,0-2.83967-.91907-4.63067-3.86479-4.63067Z"/><path d="M169.22859,24.97882l2.79548-.77178V3.858l-2.77191-.80713V1.05074H181.745c7.05205,0,11.16722,4.25067,11.16722,12.61357,0,9.45871-4.26835,13.17621-11.70629,13.17621H169.22859Zm7.75608-21.19151V24.17169h3.691c2.53626,0,6.90477-.40945,6.90477-9.72087,0-7.3319-1.31673-10.66646-6.90477-10.66646Z"/><path d="M104.7291,40.276c0,3.13424-1.81457,4.286-4.78385,4.286s-4.78385-1.76743-4.78385-4.286V33.98978l-1.34619-.42124V32.39025h5.49671v1.17829l-1.32852.42124V40.276c0,1.62014.62154,2.50386,2.389,2.50386.86605,0,2.33007-.271,2.33007-2.58634V33.98978l-1.3462-.42124V32.39025h4.71315v1.17829l-1.34619.42124Z"/><path d="M114.20843,37.0386v5.76772l1.32852.40651v1.17829h-4.63657V43.21283l1.36092-.40651V34.62311l-.58914-.72759-.80418-.25039V32.38436h3.037l5.85315,7.36431V33.98978l-1.34619-.40356V32.38436h4.63656v1.20186l-1.34325.40356V44.4h-1.573Z"/><path d="M133.06987,42.80632l1.3462.40651v1.17829h-5.5144V43.21283l1.3462-.40651V33.96916l-1.3462-.40651V32.38436h5.51439v1.17829l-1.34619.40651Z"/><path d="M207.31085,42.80632l1.34619.40651v1.17829h-5.51143V43.21283l1.34325-.40651V33.96916l-1.34325-.40651V32.38436h5.51145v1.17829l-1.3462.40651Z"/><path d="M147.02964,44.38523h-2.59223l-3.81177-10.39545-1.34619-.42124V32.39025h5.806v1.17829l-1.36387.42124,2.53037,7.39376,2.57751-7.39376-1.3462-.42124V32.39025h4.71314v1.17829l-1.34619.42124Z"/><path d="M157.94648,33.98978l-1.34619-.40356V32.38436h9.4263l.106,3.69688h-1.50526l-.73053-2.115h-3.12837V37.3479h3.11363v1.70263h-3.11363V42.8564h3.19317l.95736-2.10325h1.47286l-.21209,3.64386h-9.57948V43.21872l1.34619-.33581Z"/><path d="M177.65039,39.48649h-1.02216v3.31983l1.3462.40651v1.17829H172.463V43.21283l1.3462-.40651V33.98978l-1.3462-.40356V32.38436h5.479c3.35813,0,4.395,1.29906,4.395,3.32572a2.877,2.877,0,0,1-1.94123,3.14014l1.9383,3.91191,1.68495.51845v1.10464H179.954Zm-1.02216-5.49671v4.20059l1.89705-.162a2.51565,2.51565,0,0,0,.94263-2.09146c0-1.20186-.31814-1.94712-1.54945-1.94712Z"/><path d="M188.89127,40.65594h1.66727l.35644,1.685a4.84866,4.84866,0,0,0,2.53331.69813,2.86335,2.86335,0,0,0,.38884-.01767,1.80869,1.80869,0,0,0,.74527-1.4434c0-2.80433-5.7412-1.55534-5.7412-5.65873,0-1.87937,1.7203-3.67921,4.57471-3.67921a7.485,7.485,0,0,1,3.258.82481v3.1637h-1.573l-.56852-2.01193a5.50863,5.50863,0,0,0-1.94417-.38884,1.97346,1.97346,0,0,0-.324.01768,1.65257,1.65257,0,0,0-.79535,1.411c0,2.39781,5.69113,1.53766,5.69113,5.56152,0,2.171-1.96184,3.72928-4.60416,3.72928a6.80747,6.80747,0,0,1-3.64975-1.087Z"/><path d="M218.17761,34.01924h-1.55533l-.707,2.12681H214.41V32.38436h10.45731v3.76169h-1.47286l-.704-2.12681h-1.68789V42.8181l1.34619.40651V44.4029h-5.5144V43.22461l1.34325-.40651Z"/><path d="M234.26713,39.76339l-3.146-5.77361-1.3462-.42124V32.39025h5.806v1.17829l-1.36092.42124,1.97658,3.909,1.99426-3.909-1.34619-.42124V32.39025h4.73672v1.17829l-1.3462.42124-3.1637,5.74121v3.07533l1.3462.40651v1.17829h-5.51147V43.21283l1.36092-.40651Z"/><polygon points="239.343 19.367 237.516 24.175 229.442 24.175 229.442 14.896 234.017 14.896 234.606 17.494 236.638 17.494 236.638 9.679 234.606 9.679 234.017 12.186 229.442 12.186 229.442 3.787 237.166 3.787 238.639 8.769 241.419 8.769 241.246 1.051 221.721 1.051 221.721 3.051 224.493 3.858 224.493 24.207 221.686 24.979 221.686 26.841 241.628 26.841 242.085 19.367 239.343 19.367"/><path d="M138.36333,17.97095c0,6.54245-3.12246,9.25546-9.52645,9.25546-5.89144,0-10.15685-2.35658-10.15685-8.57205V3.858l-2.80727-.80713V1.05074h10.528V3.05088l-2.80727.80713V18.65436c0,3.72045,1.71735,5.35238,5.82368,5.35238,2.83379,0,5.4378-1.65844,5.4378-5.69408V3.858L132.083,3.05088V1.05074h9.08755V3.05088l-2.80728.80713Z"/><path d="M216.7018,17.97095c0,6.54245-3.12245,9.25546-9.52351,9.25546-5.89144,0-10.15979-2.35658-10.15979-8.57205V3.858l-2.80728-.80713V1.05074h10.528V3.05088l-2.80728.80713V18.65436c0,3.72045,1.72031,5.35238,5.8237,5.35238,2.83378,0,5.4378-1.65844,5.4378-5.69408V3.858l-2.77191-.80713V1.05074h9.08755V3.05088L216.7018,3.858Z"/><path d="M44.17982,44.40879l5.55858-13.0407h9.19948c13.31466,0,18.36657-5.46726,21.86019-13.677,1.29317-3.037,3.45827-8.1243.58914-12.45156S72.51471.438,68.21985.438h-48.899L12.425,16.63949h8.85189l-4.92524,11.5649H7.482L.58317,44.40879Z"/><path class="fa98ca42-c8fb-4c5a-83d6-9e8d74839fab" d="M78.89219,6.89505c-1.55534-2.35658-4.94881-3.45239-10.67234-3.45239H21.30925L16.97315,13.629h8.83716L18.337,31.209H9.46746L5.12841,41.4071H42.2003L46.5364,31.209H37.549l1.21364-2.84851H58.93788c12.97885,0,16.44007-5.59687,19.0971-11.84474,1.42868-3.364,2.67177-6.87531.85721-9.62072M45.03408,13.629h14.817c2.04433,0,1.74976,1.02511,1.47286,1.66139a4.99484,4.99484,0,0,1-4.74555,2.88091H43.10169Z"/><path class="e0b3e770-917e-4be0-9440-1b1b7110c409" d="M68.21985,5.00684H22.34026l-3.00758,7.06973h8.85188L19.371,32.77025H10.50141L7.49088,39.84H41.1693l3.01052-7.06973H35.18654l2.5451-5.97392H58.94083c12.157,0,15.21464-5.14911,17.67431-10.89916S80.3945,4.998,68.23751,4.998M56.60486,19.72661h-15.848l3.26386-7.65888h15.848c2.80433,0,3.93549,1.44046,2.91921,3.82944a6.48381,6.48381,0,0,1-6.186,3.82944"/><path d="M244.84522,44.34988a2.57162,2.57162,0,1,1,2.57161-2.57162h0A2.57456,2.57456,0,0,1,244.84522,44.34988Zm0-4.61005a2.03844,2.03844,0,1,0,2.03844,2.03844h0a2.03845,2.03845,0,0,0-2.03844-2.03845Z"/><path d="M244.51824,42.01392v.95442h-.50373v-2.386h1.06342c.51845,0,.80123.29457.80123.654a.58914.58914,0,0,1-.3476.56558c.11784.04418.29458.165.29458.58914v.11783a1.76663,1.76663,0,0,0,.03534.45364h-.489a1.6939,1.6939,0,0,1-.05007-.53612V42.391c0-.25923-.0648-.383-.44776-.383Zm0-.4124h.433c.29457,0,.39178-.109.39178-.29457s-.12666-.29457-.38-.29457h-.4448Z"/></svg>