<?xml version="1.0" encoding="UTF-8"?>
<svg width="46px" height="43px" viewBox="0 0 46 43" version="1.1" xmlns="http://www.w3.org/2000/svg" xmlns:xlink="http://www.w3.org/1999/xlink">
    <title>snapchat_icon</title>
    <g id="Desktop" stroke="none" stroke-width="1" fill="none" fill-rule="evenodd">
        <g id="snapchat_icon" fill="#000000" fill-rule="nonzero">
            <path d="M45.5381544,32.9213974 C38.9458468,31.839967 35.9909567,25.1318146 35.8689183,24.8469552 L35.8564062,24.8201158 C35.4772815,24.2030468 35.3912275,23.4507631 35.6212763,22.7646126 C36.064051,21.7258229 37.5287885,21.2630267 38.4993691,20.9562286 C38.741675,20.8797639 38.9708709,20.8073754 39.1506165,20.7363838 C40.9049481,20.0464604 41.2616564,19.3322166 41.2529624,18.8541915 C41.1587194,18.2443327 40.7027814,17.7521205 40.0998761,17.6093661 L40.086812,17.6044882 C39.8263134,17.5002517 39.5480192,17.4471854 39.267273,17.4482152 C39.0199729,17.4440022 38.7746246,17.4924658 38.5476693,17.5903586 C37.8626269,17.9352531 37.1160325,18.1423417 36.3505631,18.1997868 C35.9094274,18.2102662 35.4785254,18.0666572 35.1326165,17.7938754 C35.1536616,17.4047501 35.1786167,17.0033043 35.2057568,16.5790954 L35.2149568,16.4295551 C35.6572,13.3441057 35.4687305,10.2014955 34.6608617,7.19037043 C32.7135132,2.77056955 28.2996491,-0.0606590511 23.4526668,0.000986817914 C23.144251,0.0041928882 22.8357432,0.00707835146 22.5271433,0.00964320769 C17.6870988,-0.0498856559 13.2809652,2.77969876 11.3392805,7.19440092 C10.5314203,10.2028465 10.3426661,13.342843 10.7843574,16.4257536 C10.8141195,16.8818095 10.8417196,17.3380714 10.8671577,17.7945395 C10.486004,18.0919126 10.0074073,18.2375391 9.52441269,18.2031074 C8.71170586,18.1684879 7.91612568,17.9593141 7.19220397,17.5899235 C7.01467155,17.5118154 6.82205652,17.4735452 6.62801186,17.4778256 C5.80852969,17.4457097 5.05921921,17.9359481 4.76360188,18.6976208 C4.57520818,19.6837393 5.98927647,20.3981205 6.84897368,20.7362235 C7.03067436,20.8080624 7.25888122,20.8800387 7.50006012,20.9560683 C8.46995075,21.2625915 9.93595323,21.7256626 10.3785669,22.7648645 C10.6083998,23.4512278 10.5223606,24.2035919 10.143437,24.8209403 L10.131086,24.8473674 C9.49554534,26.2251239 8.6676782,27.506561 7.67203176,28.6536828 C5.86296653,30.8941589 3.30291442,32.4097102 0.461895786,32.9220845 C0.183859716,32.9676724 -0.0149433784,33.2146164 0.000882061522,33.4947344 C0.00691705289,33.5971017 0.0310541739,33.6976045 0.0721823283,33.7916165 C0.476477841,34.7331249 2.50609743,35.5105511 5.94139029,36.0381558 C6.26256349,36.0876438 6.398471,36.6089966 6.5860137,37.463025 C6.66097098,37.8049066 6.73859627,38.1597957 6.84683468,38.526135 C6.92005294,38.8626351 7.23747884,39.0891245 7.58104342,39.0500069 C7.91024737,39.031663 8.23723999,38.9849933 8.55836308,38.9105199 C9.40512932,38.7265753 10.2685634,38.6292997 11.1352007,38.6202103 C11.7577681,38.6217178 12.3791641,38.6740297 12.9931477,38.7766207 C14.2904077,39.1038752 15.4970606,39.7176369 16.5236609,40.5724094 C18.2562965,42.0456603 20.4337366,42.9001136 22.709994,43 C22.7876193,43 22.8651066,42.9972061 22.9402019,42.9908398 C23.0348242,42.9953054 23.1592087,43 23.2896192,43 C25.5671085,42.8995482 27.7456493,42.0445574 29.4794484,40.5707376 C30.5050367,39.7168154 31.7105294,39.1037133 33.0065345,38.7768955 C33.6206942,38.6744736 34.242229,38.6221629 34.8649415,38.6204851 C35.7308959,38.6245061 36.5942292,38.7155854 37.4418021,38.8923369 C37.763285,38.9623698 38.0904318,39.0035345 38.4193058,39.0153355 L38.47308,39.0153355 C38.7953025,39.041149 39.0865031,38.8242855 39.1526635,38.5092344 C39.2594989,38.1477729 39.3376992,37.803899 39.4146115,37.4528114 C39.6004752,36.6032028 39.7363827,36.0843003 40.0588209,36.0346749 C43.4950338,35.5061771 45.5245844,34.7298959 45.9261429,33.7936776 C45.9679748,33.6988331 45.9926871,33.5973888 45.9991452,33.4940016 C46.0147113,33.2139835 45.8160375,32.9672075 45.5381544,32.9213974 Z" id="Path"></path>
        </g>
    </g>
</svg>