<?xml version="1.0" encoding="UTF-8"?>
<svg width="51px" height="41px" viewBox="0 0 51 41" version="1.1" xmlns="http://www.w3.org/2000/svg" xmlns:xlink="http://www.w3.org/1999/xlink">
    <title>twitter_icon</title>
    <g id="Desktop" stroke="none" stroke-width="1" fill="none" fill-rule="evenodd">
        <g id="twitter_icon" fill="#000000" fill-rule="nonzero">
            <path d="M51,4.91240035 C49.0832597,5.73357712 47.0562409,6.27642532 44.982,6.52405807 C47.1703409,5.23302157 48.8102428,3.20198468 49.5975,0.807709575 C47.5410579,2.01661189 45.2899433,2.86835722 42.942,3.32592477 C39.7141529,-0.130872468 34.5288364,-0.99720077 30.329164,1.21865575 C26.1294916,3.43451227 23.9764189,8.17276581 25.092,12.7440496 C16.6830195,12.324029 8.85033264,8.39700095 3.5445,1.94090641 C2.62430047,3.52780645 2.14077416,5.32494029 2.142,7.15361187 C2.13537268,10.6028401 3.87756196,13.8263646 6.783,15.7407257 C5.1203424,15.6960511 3.49320841,15.2554626 2.04,14.4564359 L2.04,14.5823467 C2.06569095,19.4877805 5.58304917,23.6981025 10.455,24.6552075 C9.54530147,24.9286013 8.60083124,25.0727455 7.65,25.0833041 C6.99182006,25.0757105 6.33527673,25.0167687 5.6865,24.907029 C7.06598818,29.1027361 10.9868215,31.9738512 15.453,32.0587602 C11.7738666,34.9176058 7.23150291,36.4778649 2.55,36.4908189 C1.69762489,36.493579 0.845925826,36.4431141 0,36.339726 C4.77979231,39.3874134 10.3499728,41.0052811 16.0395,40.9984241 C23.9706707,41.0797618 31.6020939,38.0095068 37.2177697,32.4780358 C42.8334455,26.9465648 45.962019,19.4181651 45.9,11.5856706 C45.9,11.157574 45.9,10.7042953 45.9,10.2510166 C47.9009731,8.77738425 49.62676,6.97085209 51,4.91240035 L51,4.91240035 Z" id="Path"></path>
        </g>
    </g>
</svg>