<?xml version="1.0" encoding="UTF-8"?>
<svg width="35px" height="43px" viewBox="0 0 35 43" version="1.1" xmlns="http://www.w3.org/2000/svg" xmlns:xlink="http://www.w3.org/1999/xlink">
    <title>youtube_icon</title>
    <g id="Desktop" stroke="none" stroke-width="4" fill="none" fill-rule="evenodd">
        <g id="youtube_icon" fill="#cfb991" fill-rule="nonzero">
            <path d="M29.6048667,31.4530667 L27.3,31.4530667 L27.3107333,30.0823222 C27.3135546,29.4705687 27.7982008,28.9758772 28.3957333,28.9748333 L28.5432,28.9748333 C29.1416909,28.9748333 29.6278737,29.4695926 29.6314667,30.0823222 L29.6048667,31.4530667 Z M20.9594,28.5156889 C20.3746667,28.5156889 19.8963333,28.9184556 19.8963333,29.4105667 L19.8963333,36.077 C19.8963333,36.5686333 20.3746667,36.9699667 20.9594,36.9699667 C21.5464667,36.9699667 22.0252667,36.5686333 22.0252667,36.077 L22.0252667,29.4105667 C22.0252667,28.9179778 21.5464667,28.5156889 20.9594,28.5156889 M35,24.7866333 L35,37.4687667 C35,40.5107778 32.4235333,43 29.274,43 L5.72646667,43 C2.576,43 0,40.5107778 0,37.4687667 L0,24.7866333 C0,21.7446222 2.576,19.2549222 5.72646667,19.2549222 L29.274,19.2549222 C32.4235333,19.2549222 35,21.7446222 35,24.7866333 M7.29726667,38.8457222 L7.2954,25.4865778 L10.2144,25.4875333 L10.2144,23.5081 L2.4332,23.4961556 L2.4332,25.4421444 L4.8622,25.4493111 L4.8622,38.8457222 L7.29726667,38.8457222 L7.29726667,38.8457222 Z M16.0472667,27.4765222 L13.6136,27.4765222 L13.6136,34.6102222 C13.6136,35.6422222 13.6747333,36.1582222 13.6098667,36.3402556 C13.412,36.8935222 12.5225333,37.4811889 12.1758,36.3999778 C12.117,36.2107778 12.1688,35.6403111 12.1678667,34.6594333 L12.1580667,27.4765222 L9.73793333,27.4765222 L9.7454,34.5466778 C9.74726667,35.6302778 9.7216,36.4382 9.7538,36.8060889 C9.81306667,37.4544333 9.79206667,38.2102778 10.3796,38.6421889 C11.4744,39.4496333 13.573,38.5217889 14.098,37.3674778 L14.0933333,38.8404667 L16.0477333,38.8428556 L16.0472667,27.4765222 L16.0472667,27.4765222 Z M23.8326732,35.6455667 L23.8270667,29.7082222 C23.8256667,27.4454667 22.1722667,26.0904889 19.9280667,27.9213333 L19.9378667,23.5071444 L17.5065333,23.5109667 L17.4953333,38.7473 L19.4940667,38.7176778 L19.6760667,37.7688111 C22.2306,40.1677333 23.8364,38.5237 23.8326732,35.6455667 M31.4486667,34.8586667 L29.624,34.8682222 C29.6230667,34.9422778 29.6202667,35.0278 29.6193333,35.1209667 L29.6193333,36.1639556 C29.6193333,36.722 29.169,37.1758889 28.6220667,37.1758889 L28.2646,37.1758889 C27.7167333,37.1758889 27.2664,36.722 27.2664,36.1639556 L27.2664,33.4219889 L31.4449333,33.4219889 L31.4449333,31.8118778 C31.4449333,30.6351111 31.4155333,29.4588222 31.3203333,28.7861111 C31.0212,26.6580889 28.1031333,26.3203 26.6298667,27.4096333 C26.1518062,27.7553242 25.7940723,28.2482906 25.6088,28.8166889 C25.4011333,29.4287222 25.2984667,30.2648333 25.2984667,31.3269333 L25.2984667,34.8672667 C25.2998667,40.7525333 32.2821333,39.9207222 31.4486667,34.8586667 M22.0887333,15.6386222 C22.2080907,15.9435915 22.4113913,16.2065065 22.6739333,16.3954222 C22.9352667,16.5836667 23.2694,16.6782667 23.6698,16.6782667 C24.0207333,16.6782667 24.3315333,16.5812778 24.6022,16.3810889 C24.8719333,16.1818556 25.0992,15.8842 25.2849333,15.4871667 L25.2387333,16.4647 L27.9514667,16.4647 L27.9514667,4.65355556 L25.816,4.65355556 L25.816,13.846 C25.7970541,14.3347578 25.4045338,14.7209915 24.9267667,14.7209915 C24.4489995,14.7209915 24.0564793,14.3347578 24.0375333,13.846 L24.0375333,4.65355556 L21.8087333,4.65355556 L21.8087333,12.6200222 C21.8087333,13.6348222 21.8269333,14.3113556 21.8563333,14.6544 C21.8866667,14.9950556 21.9632,15.3218556 22.0887333,15.6386222 M13.8679333,8.96788889 C13.8679333,7.83412222 13.9603333,6.9488 14.1437333,6.31048889 C14.3285333,5.67456667 14.6603333,5.16334444 15.141,4.77777778 C15.6202667,4.3903 16.2339333,4.19632222 16.9801333,4.19632222 C17.6078,4.19632222 18.1454,4.32245556 18.5943333,4.56946667 C19.0456,4.81791111 19.3932667,5.14041111 19.635,5.5384 C19.8714407,5.91505879 20.0414023,6.33132037 20.1371333,6.7682 C20.2281333,7.1939 20.2729333,7.83603333 20.2729333,8.70224444 L20.2729333,11.6893111 C20.2729333,12.7848556 20.23,13.5908667 20.1464667,14.1025667 C20.06483,14.6130842 19.8828951,15.1013433 19.6116667,15.5378111 C19.341,15.9792778 18.9914667,16.3094222 18.5677333,16.5201222 C18.1393333,16.7327333 17.6493333,16.8368889 17.0958667,16.8368889 C16.4775333,16.8368889 15.9567333,16.7494556 15.5274,16.5669444 C15.0966667,16.3853889 14.7639333,16.1116222 14.5268667,15.7480333 C14.2874667,15.3839667 14.119,14.9405889 14.0172667,14.4236333 C13.9150667,13.9071556 13.8665333,13.1302889 13.8665333,12.0949444 L13.8679333,8.96788889 L13.8679333,8.96788889 Z M15.9926667,13.6596667 C15.9926667,14.3285556 16.4789333,14.8746556 17.0711333,14.8746556 C17.6642667,14.8746556 18.1482,14.3285556 18.1482,13.6596667 L18.1482,7.37211111 C18.1482,6.70417778 17.6642667,6.15807778 17.0711333,6.15807778 C16.4789333,6.15807778 15.9926667,6.70417778 15.9926667,7.37211111 L15.9926667,13.6596667 Z M8.48493333,16.8345 L11.0441333,16.8345 L11.0469333,7.77583333 L14.0709333,0.0157666667 L11.2718667,0.0157666667 L9.6642,5.77967778 L8.03366667,0 L5.26353333,0 L8.48073333,7.78013333 L8.48493333,16.8345 L8.48493333,16.8345 Z" id="Shape"></path>
        </g>
    </g>
</svg>